{
  "accessors": [
    {
      "bufferView": 2,
      "componentType": 5126,
      "count": 65532,
      "max": [
        8.312766075134277,
        9.028568267822266,
        10.066413879394531
      ],
      "min": [
        0.19249248504638672,
        -0.0419156476855278,
        -10.124247550964355
      ],
      "type": "VEC3"
    },
    {
      "bufferView": 2,
      "byteOffset": 786384,
      "componentType": 5126,
      "count": 65532,
      "max": [
        0.9999984502792358,
        1.0,
        1.0
      ],
      "min": [
        -0.9999985694885254,
        -1.0,
        -1.0
      ],
      "type": "VEC3"
    },
    {
      "bufferView": 3,
      "componentType": 5126,
      "count": 65532,
      "max": [
        1.0,
        0.9999989867210388,
        0.9999134540557861,
        1.0
      ],
      "min": [
        -1.0,
        -0.9999952912330627,
        -0.999976396560669,
        -1.0
      ],
      "type": "VEC4"
    },
    {
      "bufferView": 1,
      "componentType": 5126,
      "count": 65532,
      "max": [
        0.9964600205421448,
        0.9914829730987549
      ],
      "min": [
        0.007029000204056501,
        -0.0056639909744262695
      ],
      "type": "VEC2"
    },
    {
      "bufferView": 1,
      "byteOffset": 524256,
      "componentType": 5126,
      "count": 65532,
      "max": [
        0.9964600205421448,
        0.9914829730987549
      ],
      "min": [
        0.007029000204056501,
        -0.0056639909744262695
      ],
      "type": "VEC2"
    },
    {
      "bufferView": 1,
      "byteOffset": 1048512,
      "componentType": 5126,
      "count": 65532,
      "max": [
        0.9964600205421448,
        0.9914829730987549
      ],
      "min": [
        0.007029000204056501,
        -0.0056639909744262695
      ],
      "type": "VEC2"
    },
    {
      "bufferView": 1,
      "byteOffset": 1572768,
      "componentType": 5126,
      "count": 65532,
      "max": [
        0.9964600205421448,
        0.9914829730987549
      ],
      "min": [
        0.007029000204056501,
        -0.0056639909744262695
      ],
      "type": "VEC2"
    },
    {
      "bufferView": 0,
      "componentType": 5125,
      "count": 342369,
      "type": "SCALAR"
    },
    {
      "bufferView": 2,
      "byteOffset": 1572768,
      "componentType": 5126,
      "count": 65532,
      "max": [
        8.089076042175293,
        9.028568267822266,
        10.066413879394531
      ],
      "min": [
        -8.312766075134277,
        -0.0419156476855278,
        -10.124247550964355
      ],
      "type": "VEC3"
    },
    {
      "bufferView": 2,
      "byteOffset": 2359152,
      "componentType": 5126,
      "count": 65532,
      "max": [
        0.9999825954437256,
        1.0,
        1.0
      ],
      "min": [
        -0.9999879598617554,
        -0.9999438524246216,
        -1.0
      ],
      "type": "VEC3"
    },
    {
      "bufferView": 3,
      "byteOffset": 1048512,
      "componentType": 5126,
      "count": 65532,
      "max": [
        0.9999919533729553,
        0.9999982118606567,
        0.9999626278877258,
        1.0
      ],
      "min": [
        -0.9999998807907104,
        -0.9999856948852539,
        -0.9999852180480957,
        -1.0
      ],
      "type": "VEC4"
    },
    {
      "bufferView": 1,
      "byteOffset": 2097024,
      "componentType": 5126,
      "count": 65532,
      "max": [
        0.9964600205421448,
        0.9914829730987549
      ],
      "min": [
        -0.004898999817669392,
        -0.0056639909744262695
      ],
      "type": "VEC2"
    },
    {
      "bufferView": 1,
      "byteOffset": 2621280,
      "componentType": 5126,
      "count": 65532,
      "max": [
        0.9964600205421448,
        0.9914829730987549
      ],
      "min": [
        -0.004898999817669392,
        -0.0056639909744262695
      ],
      "type": "VEC2"
    },
    {
      "bufferView": 1,
      "byteOffset": 3145536,
      "componentType": 5126,
      "count": 65532,
      "max": [
        0.9964600205421448,
        0.9914829730987549
      ],
      "min": [
        -0.004898999817669392,
        -0.0056639909744262695
      ],
      "type": "VEC2"
    },
    {
      "bufferView": 1,
      "byteOffset": 3669792,
      "componentType": 5126,
      "count": 65532,
      "max": [
        0.9964600205421448,
        0.9914829730987549
      ],
      "min": [
        -0.004898999817669392,
        -0.0056639909744262695
      ],
      "type": "VEC2"
    },
    {
      "bufferView": 0,
      "byteOffset": 1369476,
      "componentType": 5125,
      "count": 334266,
      "type": "SCALAR"
    },
    {
      "bufferView": 2,
      "byteOffset": 3145536,
      "componentType": 5126,
      "count": 19738,
      "max": [
        -0.32553791999816895,
        9.01921272277832,
        9.894757270812988
      ],
      "min": [
        -8.186580657958984,
        -0.0419156476855278,
        -10.12175464630127
      ],
      "type": "VEC3"
    },
    {
      "bufferView": 2,
      "byteOffset": 3382392,
      "componentType": 5126,
      "count": 19738,
      "max": [
        0.9999984502792358,
        1.0,
        1.0
      ],
      "min": [
        -0.9999985694885254,
        -0.9998989105224609,
        -1.0
      ],
      "type": "VEC3"
    },
    {
      "bufferView": 3,
      "byteOffset": 2097024,
      "componentType": 5126,
      "count": 19738,
      "max": [
        1.0,
        0.9999995827674866,
        0.9998889565467834,
        1.0
      ],
      "min": [
        -1.0,
        -0.9999942779541016,
        -0.9999210834503174,
        -1.0
      ],
      "type": "VEC4"
    },
    {
      "bufferView": 1,
      "byteOffset": 4194048,
      "componentType": 5126,
      "count": 19738,
      "max": [
        0.9879860281944275,
        0.9794279932975769
      ],
      "min": [
        0.022546999156475067,
        -0.0052340030670166016
      ],
      "type": "VEC2"
    },
    {
      "bufferView": 1,
      "byteOffset": 4351952,
      "componentType": 5126,
      "count": 19738,
      "max": [
        0.9879860281944275,
        0.9794279932975769
      ],
      "min": [
        0.022546999156475067,
        -0.0052340030670166016
      ],
      "type": "VEC2"
    },
    {
      "bufferView": 1,
      "byteOffset": 4509856,
      "componentType": 5126,
      "count": 19738,
      "max": [
        0.9879860281944275,
        0.9794279932975769
      ],
      "min": [
        0.022546999156475067,
        -0.0052340030670166016
      ],
      "type": "VEC2"
    },
    {
      "bufferView": 1,
      "byteOffset": 4667760,
      "componentType": 5126,
      "count": 19738,
      "max": [
        0.9879860281944275,
        0.9794279932975769
      ],
      "min": [
        0.022546999156475067,
        -0.0052340030670166016
      ],
      "type": "VEC2"
    },
    {
      "bufferView": 0,
      "byteOffset": 2706540,
      "componentType": 5125,
      "count": 78417,
      "type": "SCALAR"
    }
  ],
  "asset": {
    "extras": {
      "author": "kane_sk06 (https://sketchfab.com/kanesk06)",
      "license": "CC-BY-4.0 (http://creativecommons.org/licenses/by/4.0/)",
      "source": "https://sketchfab.com/3d-models/sneakers-game-ready-textured-mockup-d9a4eda1845249a69d3c79814be9efc0",
      "title": "Sneakers - Game Ready - Textured (Mockup)"
    },
    "generator": "Sketchfab-15.38.0",
    "version": "2.0"
  },
  "bufferViews": [
    {
      "buffer": 0,
      "byteLength": 3020208,
      "name": "floatBufferViews",
      "target": 34963
    },
    {
      "buffer": 0,
      "byteLength": 4825664,
      "byteOffset": 3020208,
      "byteStride": 8,
      "name": "floatBufferViews",
      "target": 34962
    },
    {
      "buffer": 0,
      "byteLength": 3619248,
      "byteOffset": 7845872,
      "byteStride": 12,
      "name": "floatBufferViews",
      "target": 34962
    },
    {
      "buffer": 0,
      "byteLength": 2412832,
      "byteOffset": 11465120,
      "byteStride": 16,
      "name": "floatBufferViews",
      "target": 34962
    }
  ],
  "buffers": [
    {
      "byteLength": 13877952,
      "uri": "scene.bin"
    }
  ],
  "extensionsUsed": [
    "KHR_materials_specular"
  ],
  "images": [
    {
      "uri": "textures/TEXTURE_baseColor.png"
    },
    {
      "uri": "textures/TEXTURE_metallicRoughness.png"
    },
    {
      "uri": "textures/TEXTURE_normal.png"
    }
  ],
  "materials": [
    {
      "doubleSided": true,
      "extensions": {
        "KHR_materials_specular": {
          "specularColorFactor": [
            1.0,
            1.0,
            1.0
          ],
          "specularFactor": 1.0
        }
      },
      "name": "TEXTURE",
      "normalTexture": {
        "index": 2,
        "texCoord": 2
      },
      "pbrMetallicRoughness": {
        "baseColorTexture": {
          "index": 0
        },
        "metallicRoughnessTexture": {
          "index": 1,
          "texCoord": 1
        }
      }
    }
  ],
  "meshes": [
    {
      "name": "Object_0",
      "primitives": [
        {
          "attributes": {
            "NORMAL": 1,
            "POSITION": 0,
            "TANGENT": 2,
            "TEXCOORD_0": 3,
            "TEXCOORD_1": 4,
            "TEXCOORD_2": 5,
            "TEXCOORD_3": 6
          },
          "indices": 7,
          "material": 0,
          "mode": 4
        }
      ]
    },
    {
      "name": "Object_1",
      "primitives": [
        {
          "attributes": {
            "NORMAL": 9,
            "POSITION": 8,
            "TANGENT": 10,
            "TEXCOORD_0": 11,
            "TEXCOORD_1": 12,
            "TEXCOORD_2": 13,
            "TEXCOORD_3": 14
          },
          "indices": 15,
          "material": 0,
          "mode": 4
        }
      ]
    },
    {
      "name": "Object_2",
      "primitives": [
        {
          "attributes": {
            "NORMAL": 17,
            "POSITION": 16,
            "TANGENT": 18,
            "TEXCOORD_0": 19,
            "TEXCOORD_1": 20,
            "TEXCOORD_2": 21,
            "TEXCOORD_3": 22
          },
          "indices": 23,
          "material": 0,
          "mode": 4
        }
      ]
    }
  ],
  "nodes": [
    {
      "children": [
        1
      ],
      "matrix": [
        1.0,
        0.0,
        0.0,
        0.0,
        0.0,
        2.220446049250313e-16,
        -1.0,
        0.0,
        0.0,
        1.0,
        2.220446049250313e-16,
        0.0,
        0.0,
        0.0,
        0.0,
        1.0
      ],
      "name": "Sketchfab_model"
    },
    {
      "children": [
        2
      ],
      "name": "root"
    },
    {
      "children": [
        3
      ],
      "matrix": [
        1.0,
        0.0,
        0.0,
        0.0,
        0.0,
        2.220446049250313e-16,
        1.0,
        0.0,
        0.0,
        -1.0,
        2.220446049250313e-16,
        0.0,
        0.0,
        0.0,
        0.0,
        1.0
      ],
      "name": "GLTF_SceneRootNode"
    },
    {
      "children": [
        4,
        5,
        6
      ],
      "name": "SHOE FINAL.001_0"
    },
    {
      "mesh": 0,
      "name": "Object_4"
    },
    {
      "mesh": 1,
      "name": "Object_5"
    },
    {
      "mesh": 2,
      "name": "Object_6"
    }
  ],
  "samplers": [
    {
      "magFilter": 9729,
      "minFilter": 9987,
      "wrapS": 10497,
      "wrapT": 10497
    }
  ],
  "scene": 0,
  "scenes": [
    {
      "name": "Sketchfab_Scene",
      "nodes": [
        0
      ]
    }
  ],
  "textures": [
    {
      "sampler": 0,
      "source": 0
    },
    {
      "sampler": 0,
      "source": 1
    },
    {
      "sampler": 0,
      "source": 2
    }
  ]
}
